<?xml version="1.0" standalone="no"?>
<!DOCTYPE svg PUBLIC "-//W3C//DTD SVG 20010904//EN"
 "http://www.w3.org/TR/2001/REC-SVG-20010904/DTD/svg10.dtd">
<svg version="1.0" xmlns="http://www.w3.org/2000/svg"
 width="1920.000000pt" height="1080.000000pt" viewBox="0 0 1920.000000 1080.000000"
 preserveAspectRatio="xMidYMid meet">

<g transform="translate(0.000000,1080.000000) scale(0.100000,-0.100000)"
fill="#000000" stroke="none">
<path d="M7984 8382 c-72 -25 -190 -98 -248 -151 -95 -89 -111 -184 -52 -307
37 -77 85 -138 125 -158 14 -8 49 -17 77 -21 43 -5 59 -2 108 21 32 15 83 50
113 78 53 48 55 52 50 92 -5 52 -41 123 -72 147 -28 20 -85 34 -85 20 0 -6 9
-18 20 -28 16 -15 20 -31 20 -89 0 -88 -12 -112 -75 -154 -39 -26 -56 -32 -80
-28 -38 7 -90 65 -121 134 -23 50 -23 54 -8 92 35 88 154 159 310 186 l100 17
67 -32 c54 -26 68 -38 78 -66 7 -19 18 -35 25 -35 15 0 24 -47 24 -134 0 -97
-28 -154 -127 -259 -200 -212 -236 -237 -442 -302 -144 -45 -362 -141 -386
-170 -5 -6 -31 -24 -57 -39 -60 -35 -130 -112 -163 -181 -16 -33 -41 -63 -64
-79 -60 -42 -97 -86 -135 -161 -43 -86 -70 -199 -64 -272 8 -88 6 -87 237 -85
159 1 209 -2 243 -14 118 -43 311 -82 481 -99 l67 -7 -22 -40 c-13 -22 -33
-51 -46 -65 -12 -13 -29 -37 -37 -54 -15 -27 -14 -29 4 -29 10 0 45 16 77 35
32 19 63 35 70 35 8 0 13 -38 17 -127 2 -72 11 -148 19 -173 l15 -45 52 109
c28 59 51 115 52 125 0 13 2 13 6 1 14 -37 77 -110 133 -154 184 -145 411
-190 651 -130 57 14 132 39 165 55 49 23 76 29 130 29 78 0 130 20 182 69 47
43 68 41 76 -9 5 -35 10 -40 34 -41 67 -3 168 4 183 12 13 7 37 -8 102 -60
107 -87 190 -137 252 -153 28 -7 58 -20 68 -29 10 -9 31 -19 47 -23 16 -3 46
-16 67 -29 73 -44 143 -67 209 -67 50 0 64 3 64 15 0 8 7 15 15 15 19 0 19 10
-1 38 l-16 23 84 -6 c51 -4 93 -3 110 4 24 9 27 14 18 35 -7 20 -5 25 12 29
14 4 17 10 11 21 -10 17 -177 146 -190 146 -12 0 -73 57 -73 69 0 5 -10 13
-22 17 -13 4 -41 24 -63 44 -71 67 -109 100 -117 100 -4 0 -27 14 -51 30 -25
17 -49 30 -53 30 -11 0 -67 53 -173 164 -93 98 -125 116 -203 116 -44 0 -60
-5 -88 -29 -19 -15 -45 -31 -57 -35 -11 -4 -27 -13 -33 -21 -7 -8 -29 -15 -50
-15 -21 0 -52 -3 -69 -6 -29 -6 -31 -10 -32 -48 0 -37 -1 -39 -10 -16 -6 13
-17 33 -26 42 -9 10 -14 20 -12 21 2 2 40 29 84 60 44 31 91 66 105 77 14 12
95 68 180 125 222 149 390 285 390 315 0 5 -12 10 -27 12 l-27 3 38 37 c49 47
86 98 86 116 0 22 -169 9 -287 -21 -51 -13 -93 -22 -93 -20 0 1 27 48 60 104
33 55 60 105 60 110 0 5 9 23 20 41 27 44 27 71 0 63 -27 -9 -25 5 10 72 32
60 37 83 18 83 -17 0 -94 -47 -175 -107 -40 -29 -76 -53 -79 -53 -27 0 -524
-474 -524 -500 0 -17 -104 -150 -117 -150 -19 0 -16 13 11 53 28 40 173 324
211 411 14 32 25 69 25 82 0 13 4 24 9 24 5 0 13 25 17 56 6 53 12 62 103 166
91 105 129 154 130 171 2 12 -47 8 -89 -9 -22 -9 -40 -20 -40 -25 0 -5 -5 -9
-11 -9 -7 0 -33 -13 -58 -29 -59 -36 -82 -43 -101 -31 -12 7 -11 15 9 54 12
25 28 49 35 53 36 21 196 288 196 328 0 26 0 26 -181 -96 -30 -20 -63 -46 -73
-58 -11 -11 -22 -21 -26 -21 -3 0 -4 29 -2 65 3 40 0 65 -6 65 -13 0 -131
-127 -144 -156 -6 -13 -17 -24 -23 -24 -10 0 -14 65 -17 268 -2 157 -8 274
-14 285 -9 15 -19 -2 -63 -100 -46 -102 -140 -367 -141 -398 -1 -13 -59 -50
-92 -58 -23 -6 -26 -3 -31 26 -8 55 -47 235 -84 396 l-37 154 -17 -64 c-34
-121 -52 -280 -47 -427 l3 -138 -65 -13 c-80 -15 -233 -60 -240 -71 -3 -5 -18
-12 -33 -15 -41 -11 -27 11 49 73 78 65 135 138 164 212 28 69 23 151 -14 235
-15 32 -26 63 -26 70 0 6 -29 40 -64 74 -120 115 -267 158 -392 113z m526
-1205 c0 -31 -6 -49 -25 -70 -14 -15 -28 -27 -30 -27 -2 0 -11 12 -19 27 -13
26 -12 29 23 70 20 23 39 42 44 43 4 0 7 -19 7 -43z"/>
<path d="M13560 7038 c-92 -26 -200 -64 -249 -85 -52 -23 -88 -23 -102 -1 -4
7 -14 6 -27 -1 -15 -8 -21 -7 -25 3 -5 12 -188 76 -217 76 -26 0 -117 -52
-178 -101 -61 -49 -89 -55 -79 -18 6 22 -3 24 -22 7 -11 -11 -12 -9 -6 10 3
12 2 22 -3 22 -14 0 -91 -64 -129 -108 l-33 -37 0 33 c0 43 -19 41 -48 -6
l-23 -37 4 48 c5 52 3 55 -26 30 -20 -18 -20 -17 -14 20 8 48 -8 46 -43 -7
-18 -27 -26 -34 -28 -22 -2 9 -7 16 -10 16 -10 0 -107 -204 -129 -269 -13 -40
-29 -63 -62 -90 -30 -25 -54 -60 -81 -116 -56 -116 -63 -157 -55 -321 l7 -140
-36 -28 c-34 -26 -36 -30 -36 -87 0 -92 39 -149 103 -149 16 0 35 -7 43 -15
24 -23 54 -19 54 8 0 12 8 35 19 50 l18 28 22 -50 c24 -56 26 -78 10 -83 -16
-5 8 -77 33 -100 17 -16 15 -16 -39 -11 l-58 6 29 -31 28 -30 -28 -18 c-15
-10 -59 -26 -97 -36 -73 -19 -188 -75 -195 -96 -2 -8 8 -12 27 -12 17 0 31 -4
31 -10 0 -5 16 -10 35 -10 19 0 35 -3 35 -6 0 -3 -12 -23 -28 -43 -78 -102
-111 -214 -118 -397 -5 -132 -4 -139 40 -304 8 -30 17 -76 21 -101 3 -26 12
-55 20 -65 15 -18 16 -18 39 10 l25 30 22 -47 c13 -26 29 -47 35 -47 7 0 18
16 25 35 15 40 36 40 80 -1 35 -33 47 -30 54 14 13 71 11 70 82 78 58 6 68 4
80 -12 7 -10 13 -26 13 -36 0 -14 -8 -18 -40 -18 -99 0 -210 -106 -184 -175 7
-17 46 -20 72 -6 18 9 21 4 64 -112 6 -15 24 -39 40 -52 39 -33 119 -33 245
-1 l92 24 16 -22 c8 -11 33 -47 55 -79 l39 -58 -28 -59 c-16 -33 -33 -66 -39
-73 -17 -21 -17 -51 0 -76 11 -15 15 -34 11 -53 -4 -21 1 -38 21 -67 23 -33
27 -49 30 -137 6 -161 46 -259 151 -369 161 -170 154 -151 140 -427 -6 -117
-5 -158 3 -158 7 0 12 -7 12 -15 0 -31 -23 -61 -62 -80 -59 -28 -87 -71 -99
-150 -7 -43 -7 -71 -1 -77 10 -10 5 -43 -25 -173 -9 -38 -19 -72 -23 -75 -27
-20 -43 -338 -17 -357 6 -6 33 -18 60 -28 26 -10 47 -19 47 -21 0 -11 -87
-182 -100 -196 -19 -21 -131 -281 -141 -328 -18 -81 -29 -115 -38 -118 -5 -2
-7 -18 -4 -36 3 -22 -2 -46 -15 -72 -11 -22 -26 -67 -32 -101 l-12 -62 -28 26
c-16 14 -97 70 -182 124 l-153 97 3 98 c5 133 -10 233 -57 374 -35 104 -38
122 -30 165 13 67 5 85 -35 85 -47 0 -50 10 -14 41 l33 27 -18 34 c-11 19 -45
50 -80 73 -34 22 -64 43 -67 47 -3 4 -26 14 -50 23 -52 18 -90 51 -90 77 0 18
4 17 48 -8 l49 -27 104 50 c130 63 165 92 196 163 14 30 33 73 44 96 10 23 21
70 25 105 5 55 3 71 -15 104 -11 22 -21 45 -21 51 0 19 -35 44 -62 44 -13 0
-35 11 -48 25 -14 15 -35 25 -51 25 -27 0 -27 0 -35 93 -9 112 -9 116 24 147
80 75 189 322 227 518 19 92 19 259 1 332 -27 115 -76 209 -144 282 -36 37
-68 68 -73 68 -4 0 -27 13 -51 28 -106 71 -253 132 -316 132 -22 0 -42 5 -44
10 -5 15 -207 18 -216 4 -4 -6 -41 -19 -82 -29 -41 -10 -100 -27 -130 -38 -30
-11 -80 -21 -110 -21 -72 -1 -149 -39 -222 -108 -67 -64 -85 -98 -94 -173 -6
-44 -19 -76 -58 -141 -30 -48 -58 -83 -67 -84 -32 0 -103 -289 -95 -380 4 -45
16 -42 37 12 l18 43 1 -35 1 -35 23 45 24 44 32 -64 c30 -60 32 -69 27 -138
-3 -41 -8 -76 -11 -80 -3 -3 -23 -8 -43 -11 -34 -6 -38 -10 -35 -34 1 -15 0
-27 -4 -27 -4 0 -31 14 -60 31 -44 25 -54 35 -54 58 0 40 -105 137 -157 145
-145 21 -143 22 -218 -29 -39 -26 -92 -54 -120 -61 -96 -26 -225 -46 -267 -41
-143 16 -237 31 -267 41 -39 13 -67 47 -75 94 -5 30 -2 35 42 65 71 48 97 80
116 141 16 51 36 67 36 30 0 -25 33 -134 41 -134 4 0 13 39 19 88 7 48 17 91
21 96 5 5 24 -3 44 -18 20 -16 38 -26 41 -24 2 3 -6 37 -18 76 -11 40 -18 75
-15 78 14 14 29 -15 66 -130 51 -159 132 -320 151 -300 4 5 3 47 -2 94 -9 85
-3 346 11 450 l7 55 28 -55 c39 -74 104 -177 133 -208 13 -14 23 -29 23 -34 0
-17 104 -168 116 -168 6 0 2 39 -12 108 -54 252 -84 502 -84 704 0 187 11 241
58 284 61 56 159 104 211 104 75 0 220 19 306 40 112 28 215 62 215 72 0 11
47 10 52 -1 2 -5 59 -14 128 -19 133 -12 229 -38 290 -79 60 -40 90 -23 90 51
0 28 -4 36 -18 36 -9 0 -22 10 -27 23 -9 20 -7 23 34 32 53 12 66 30 52 68 -8
20 -17 27 -39 27 -20 0 -42 14 -82 56 -30 30 -76 67 -102 82 l-48 27 0 103 c0
105 -16 243 -30 252 -4 3 -15 28 -24 57 -16 49 -16 55 1 110 9 32 21 61 26 64
4 3 11 47 14 97 8 121 1 123 -118 42 -99 -68 -87 -66 -209 -35 -73 19 -230 17
-533 -5 -213 -15 -335 -5 -443 36 -58 23 -85 27 -174 28 -178 1 -308 -48 -417
-154 -60 -59 -74 -82 -127 -202 -22 -52 -28 -58 -68 -68 -24 -6 -49 -19 -55
-28 -21 -27 -16 -129 9 -178 20 -40 41 -56 50 -36 2 4 17 18 35 30 l32 23 8
-28 c9 -36 9 -119 0 -162 -6 -31 -3 -38 36 -77 41 -40 43 -62 6 -43 -26 13
-54 0 -68 -32 -12 -27 -11 -32 8 -53 27 -29 20 -48 -27 -72 -20 -10 -40 -20
-43 -22 -4 -1 -9 12 -13 30 -10 51 -40 118 -51 115 -5 -2 -13 -22 -18 -45 -4
-23 -12 -42 -16 -42 -11 0 -161 159 -161 170 0 6 -5 10 -10 10 -9 0 -30 -40
-59 -114 -9 -22 -15 -26 -23 -18 -21 21 -28 13 -28 -33 0 -25 -2 -45 -4 -45
-2 0 -54 51 -114 112 -61 62 -113 110 -116 107 -3 -3 -11 -41 -17 -85 -6 -43
-13 -89 -15 -101 l-4 -23 -23 23 -22 22 -3 -72 c-2 -45 -7 -73 -14 -73 -6 0
-33 14 -60 30 -72 45 -83 40 -47 -19 11 -18 19 -34 17 -36 -2 -1 -43 6 -93 16
-49 10 -103 19 -118 19 -35 0 -29 -13 42 -89 28 -30 51 -58 51 -63 0 -10 -45
-9 -117 1 -29 4 -53 5 -53 1 0 -4 32 -37 70 -74 39 -37 70 -71 70 -76 0 -5
-12 -12 -27 -15 -31 -7 -173 -64 -186 -75 -4 -4 18 -16 50 -28 106 -38 133
-48 138 -54 4 -3 -16 -18 -44 -34 -28 -15 -51 -31 -51 -36 0 -4 25 -8 56 -8
47 0 55 -3 50 -16 -3 -9 -9 -27 -12 -40 -3 -13 -10 -24 -14 -24 -10 0 -36
-138 -27 -146 5 -5 43 24 95 74 29 28 36 24 22 -12 -5 -15 -10 -36 -10 -48 0
-18 3 -17 35 11 20 17 39 31 43 31 9 0 32 -227 32 -312 0 -62 -13 -78 -65 -78
-35 0 -41 -23 -16 -65 12 -20 21 -47 21 -60 0 -18 8 -26 33 -35 35 -12 81 -74
104 -144 26 -75 75 -145 115 -164 48 -22 43 -37 -9 -34 -24 2 -55 -3 -73 -13
-18 -9 -41 -15 -51 -12 -10 3 -27 -2 -38 -9 -18 -13 -22 -12 -45 10 -13 14
-36 28 -50 32 -24 6 -25 8 -20 63 7 76 -8 102 -66 116 -45 11 -45 11 -50 60
-7 63 -33 112 -70 133 -22 13 -31 28 -40 72 -6 30 -17 62 -23 71 -17 23 -107
67 -196 95 -196 63 -251 86 -251 105 0 29 -32 39 -131 39 l-92 0 -80 73 c-45
39 -106 96 -136 126 -31 29 -74 67 -96 83 l-40 30 88 -4 c88 -4 95 -2 77 31
-8 16 -4 19 28 25 20 3 60 6 88 6 56 0 69 7 53 27 -9 10 -7 13 7 13 11 0 26 5
34 10 13 9 13 12 -1 23 -52 40 -101 91 -91 95 7 2 12 9 12 16 0 7 11 19 25 26
36 19 31 28 -15 32 l-40 3 32 50 c52 79 79 127 74 132 -2 3 -24 -7 -49 -21
-24 -14 -48 -26 -54 -26 -6 0 -5 25 3 73 8 45 12 129 10 222 -3 136 -6 159
-34 242 -17 50 -38 106 -47 123 -18 35 -162 190 -177 190 -5 0 -37 19 -71 43
-34 24 -81 52 -104 62 -24 10 -43 22 -43 27 0 4 -8 8 -18 8 -10 0 -22 4 -28 9
-5 5 -55 15 -112 21 -78 9 -109 9 -131 1 -15 -7 -32 -11 -37 -10 -15 4 -118
-21 -124 -30 -3 -5 -44 -22 -91 -38 -100 -35 -209 -104 -259 -164 -52 -62
-108 -149 -121 -186 -6 -18 -14 -33 -19 -33 -9 0 -60 -151 -79 -232 -13 -55
-14 -244 -2 -306 9 -44 53 -102 78 -102 13 0 63 -92 63 -116 0 -6 18 -53 40
-104 29 -68 40 -107 40 -144 0 -42 2 -47 13 -33 11 15 14 13 33 -25 12 -24 54
-109 94 -190 l72 -147 163 -166 c92 -93 166 -177 169 -191 5 -18 -1 -39 -19
-69 -14 -24 -25 -51 -25 -59 0 -9 -4 -16 -10 -16 -5 0 -13 -12 -16 -27 -4 -16
-15 -47 -26 -70 -17 -40 -22 -43 -56 -43 -31 0 -40 5 -54 30 -21 37 -72 60
-133 60 -34 0 -45 4 -45 15 0 36 -47 169 -67 191 -26 28 -75 32 -130 9 -33
-14 -38 -14 -68 5 -21 13 -50 20 -84 20 -67 0 -101 -30 -101 -87 0 -44 -25
-87 -46 -79 -11 4 -14 -6 -14 -46 l0 -52 -20 22 c-11 12 -20 24 -20 28 0 3
-14 22 -31 41 -17 19 -28 41 -25 49 11 28 -5 44 -43 44 -23 0 -59 12 -92 30
-30 16 -80 36 -110 43 l-54 14 -2 219 c-4 298 1 279 -82 304 -37 11 -76 20
-85 20 -9 0 -16 4 -16 8 0 4 -34 17 -77 27 -42 11 -84 27 -93 37 -9 10 -43 26
-76 37 -55 17 -59 21 -64 52 l-5 34 -60 1 c-33 0 -78 9 -100 18 -22 10 -78 31
-125 48 -74 26 -214 108 -245 143 -24 28 -77 57 -95 52 -12 -3 -20 0 -20 7 0
7 -13 28 -30 46 -30 34 -37 50 -22 50 5 0 15 18 22 39 12 37 15 40 44 34 17
-3 39 -10 49 -15 15 -8 17 -6 11 18 -7 27 -6 27 35 21 22 -3 41 -2 41 2 0 4
-18 33 -40 64 -22 33 -37 63 -34 72 7 17 54 21 54 5 0 -5 15 -10 33 -10 50 0
141 -25 182 -49 43 -25 55 -21 31 11 -9 13 -24 34 -33 47 l-17 24 158 -5 c107
-3 160 -8 165 -16 4 -6 21 -15 39 -18 25 -5 32 -3 32 8 0 20 -87 101 -131 122
-39 19 -74 44 -68 49 2 2 36 22 76 45 107 63 176 127 300 282 38 47 83 100
100 118 37 38 123 166 123 183 0 7 -16 9 -52 4 l-53 -7 43 42 c23 23 42 43 42
46 0 2 -27 4 -59 4 -69 0 -195 22 -282 50 -86 28 -279 110 -279 120 0 11 39
20 93 20 60 0 58 14 -6 47 -35 19 -69 27 -139 31 l-93 7 27 26 c15 14 59 36
98 50 38 13 70 27 70 31 0 23 -161 21 -215 -4 -33 -15 -37 -9 -25 33 17 57 12
171 -10 243 -11 36 -24 67 -29 70 -4 3 -11 -35 -13 -85 -3 -50 -10 -94 -15
-98 -6 -3 -16 -23 -22 -43 -7 -21 -14 -38 -16 -38 -2 0 -1 36 2 80 3 45 1 106
-6 142 -14 70 -71 196 -103 225 -20 18 -20 18 -12 -37 17 -107 2 -252 -33
-313 -5 -8 -53 98 -53 116 0 19 -83 128 -127 167 -26 23 -104 82 -173 131 -69
49 -140 102 -158 117 -18 15 -48 35 -67 46 -40 21 -137 124 -168 178 -12 21
-25 38 -29 38 -8 0 -27 -117 -30 -188 l-3 -54 -92 79 c-50 43 -100 89 -110
103 -35 46 -64 125 -76 205 l-13 80 -22 -41 c-11 -23 -30 -44 -41 -47 -12 -3
-24 -13 -28 -24 -4 -10 -23 -43 -42 -73 -19 -30 -53 -88 -74 -129 -22 -41 -46
-81 -54 -89 -13 -14 -14 -8 -8 44 4 32 12 62 17 65 5 3 2 9 -8 13 -9 3 -18 5
-19 4 -2 -2 -25 -48 -53 -103 -44 -88 -131 -327 -161 -441 -21 -79 -23 -204
-6 -309 9 -55 19 -117 22 -137 6 -38 -7 -52 -24 -25 -9 13 -119 108 -142 121
-10 7 -12 3 -6 -15 4 -13 11 -26 14 -29 4 -3 13 -21 21 -40 18 -47 45 -87 93
-136 l39 -42 -39 -12 c-91 -30 -235 -112 -275 -156 -16 -18 -13 -19 110 -19
136 0 206 -14 242 -47 18 -17 20 -27 15 -73 -7 -51 -5 -56 29 -98 22 -27 36
-55 36 -71 0 -15 -4 -25 -10 -21 -5 3 -38 -14 -72 -37 -35 -24 -80 -54 -101
-67 l-38 -23 7 37 7 37 -69 -37 c-38 -21 -72 -42 -76 -49 -6 -8 -10 -8 -15 0
-5 6 -30 23 -58 37 -39 20 -46 27 -32 32 21 9 23 25 2 25 -28 0 -15 16 40 51
30 18 55 38 55 42 0 5 -26 5 -57 0 -62 -9 -95 -9 -381 -5 -101 1 -181 6 -178
10 3 4 37 24 75 42 67 33 87 50 58 50 -6 0 -53 -11 -102 -25 -50 -14 -94 -25
-99 -25 -12 0 113 100 162 130 49 29 57 56 15 45 -15 -3 -30 -11 -33 -15 -3
-5 -51 -26 -105 -45 -55 -20 -131 -51 -170 -70 -78 -37 -213 -123 -234 -148
-7 -9 -18 -17 -24 -17 -6 0 -19 -7 -29 -17 -11 -10 -18 -12 -18 -4 0 19 41 95
59 108 14 11 14 12 -4 12 -20 0 -70 -58 -133 -154 l-33 -50 6 60 c4 33 17 96
30 140 13 44 22 81 21 83 -7 6 -84 -136 -114 -208 -38 -92 -80 -247 -88 -320
-3 -30 -12 -72 -20 -92 -7 -21 -11 -44 -8 -53 4 -11 -4 -20 -30 -30 -43 -18
-45 -32 -11 -71 15 -17 22 -35 19 -44 -3 -8 -9 -23 -11 -32 -3 -10 -10 -18
-15 -18 -6 0 13 -19 42 -42 l51 -43 -6 -55 c-7 -72 -9 -220 -2 -226 3 -3 17
21 33 53 l27 58 10 -37 c13 -46 23 -48 32 -8 4 16 10 30 14 30 4 0 25 -35 46
-77 33 -66 39 -74 44 -55 5 21 11 15 39 -41 18 -36 35 -79 38 -96 8 -36 -10
-93 -36 -116 -11 -10 -20 -24 -20 -32 0 -15 4 -17 67 -33 27 -7 44 -17 48 -30
4 -11 13 -20 22 -20 9 0 25 -9 37 -20 84 -80 181 -152 211 -157 56 -9 119 15
202 77 73 55 78 57 100 43 13 -9 20 -20 15 -27 -27 -44 -126 -165 -138 -170
-21 -8 -17 -36 8 -63 26 -28 25 -29 -77 -83 -44 -23 -86 -46 -92 -52 -7 -6
-30 -12 -50 -15 -21 -2 -105 -20 -186 -40 -137 -32 -149 -34 -166 -19 -10 9
-23 16 -29 16 -8 0 -12 22 -12 65 0 77 -19 122 -56 131 -18 5 -32 21 -49 58
-28 61 -50 83 -101 101 -61 21 -144 -11 -144 -55 0 -10 -16 -24 -40 -35 -34
-15 -42 -25 -51 -61 -18 -69 -29 -71 -80 -11 -25 28 -58 70 -74 92 -16 22 -47
58 -69 80 -21 22 -66 74 -98 115 -91 114 -162 187 -166 167 -2 -9 26 -89 61
-179 36 -90 97 -248 136 -353 40 -104 75 -192 79 -195 9 -6 62 -140 62 -156 0
-12 -52 -64 -65 -64 -11 0 -68 -63 -104 -115 -16 -22 -41 -76 -57 -120 -33
-94 -53 -119 -114 -135 -59 -16 -261 -113 -279 -134 -7 -9 -16 -36 -19 -61 -4
-39 0 -53 30 -103 19 -31 40 -77 47 -102 15 -54 37 -80 65 -80 12 0 45 -22 74
-50 67 -63 92 -66 92 -10 0 22 2 40 5 40 2 0 19 -9 37 -20 57 -34 78 -24 78
40 0 19 9 35 25 49 l26 20 49 -26 c51 -27 70 -24 70 8 0 16 6 20 28 17 22 -2
28 1 30 20 5 34 36 46 73 27 36 -19 40 -17 48 31 5 32 11 38 56 55 48 19 53
19 110 3 102 -28 108 -44 34 -93 -76 -49 -129 -143 -129 -228 0 -17 -4 -34 -8
-37 -5 -3 -4 -28 2 -56 8 -42 7 -56 -5 -78 -14 -24 -21 -27 -62 -25 -43 3 -47
1 -47 -20 0 -12 7 -35 15 -51 8 -15 15 -39 15 -51 0 -14 11 -32 27 -44 16 -12
33 -25 40 -31 16 -13 83 -13 83 0 0 6 15 10 33 10 35 0 101 28 148 61 l30 21
68 -22 c81 -26 194 -38 285 -30 37 3 69 4 72 1 2 -2 4 -16 4 -30 1 -38 37
-168 60 -217 29 -59 92 -128 140 -153 56 -29 73 -46 112 -116 19 -33 40 -69
47 -80 11 -18 7 -33 -33 -119 -25 -54 -46 -101 -46 -105 0 -3 -20 -55 -45
-113 -25 -59 -45 -114 -45 -123 0 -8 -4 -15 -9 -15 -5 0 -12 -43 -16 -95 -7
-89 -9 -97 -35 -115 -30 -21 -63 -69 -75 -107 l-6 -23 1205 0 1205 0 7 22 c8
26 16 35 69 69 89 60 127 80 139 76 7 -3 33 -41 59 -86 l47 -81 778 0 c667 1
780 3 796 15 13 9 43 15 80 15 34 0 99 7 146 16 47 9 97 18 112 21 15 3 69 -2
121 -11 103 -17 198 -23 216 -12 6 4 11 2 11 -5 0 -8 19 -10 70 -5 93 10 170
30 252 68 l67 30 53 -46 c29 -25 57 -46 61 -46 5 0 20 -9 34 -20 24 -19 41
-20 323 -20 l298 0 61 34 c93 53 96 53 143 7 63 -63 91 -59 189 30 43 38 81
79 84 90 4 10 11 19 17 19 6 0 52 -40 102 -90 l92 -90 413 0 412 0 -21 31
c-12 16 -21 32 -19 33 13 11 60 30 127 54 71 24 92 27 275 30 196 3 237 -3
164 -27 -33 -11 -197 -108 -197 -117 0 -2 331 -4 735 -4 l735 0 0 68 c0 52 -6
80 -23 115 l-24 46 21 32 20 32 11 -68 c12 -70 17 -78 90 -131 30 -21 30 -29
-1 -71 l-16 -23 466 0 466 0 0 54 c0 85 -20 96 -150 76 -46 -6 -60 -5 -86 11
-17 11 -39 19 -48 19 -26 0 -18 28 17 57 17 16 54 50 82 76 l50 49 51 -56 c28
-30 62 -69 75 -85 13 -17 28 -31 33 -31 5 0 19 -11 32 -25 16 -17 34 -25 56
-25 38 0 154 52 181 80 17 19 18 18 64 -25 26 -25 51 -45 56 -45 17 0 137
-101 137 -116 0 -12 58 -14 374 -14 l374 0 7 30 c5 22 14 32 33 36 15 4 48 17
74 30 26 13 51 24 55 24 5 0 25 -27 46 -60 l37 -60 155 0 c85 0 155 2 155 5 0
3 -16 40 -36 82 -20 43 -44 97 -55 120 l-18 42 55 30 c30 17 54 33 54 35 0 8
-101 240 -109 251 -4 5 -18 37 -31 70 -13 33 -38 74 -56 92 -52 50 -47 80 24
135 31 25 86 73 122 107 35 33 67 61 70 61 3 0 18 -19 34 -41 26 -37 32 -40
60 -34 17 3 46 8 64 12 17 3 32 9 32 14 0 15 38 10 44 -6 8 -22 30 -18 63 12
31 30 115 92 145 108 10 5 18 13 18 16 0 8 191 -116 199 -129 11 -17 48 -31
68 -26 16 4 28 -4 49 -33 15 -21 39 -50 54 -64 14 -14 49 -51 79 -83 30 -31
64 -59 77 -62 13 -4 24 -9 24 -13 0 -4 -21 -23 -47 -42 -27 -18 -69 -54 -94
-79 -25 -25 -58 -53 -73 -64 -87 -58 -89 -185 -5 -279 13 -15 41 -46 62 -70
21 -23 57 -70 80 -104 l42 -62 253 -1 252 0 -6 24 c-3 13 -1 27 5 30 18 12 13
35 -19 81 -31 45 -27 55 20 55 10 0 23 12 30 30 19 45 29 45 23 1 -5 -35 -3
-39 21 -43 31 -6 36 -2 36 29 0 14 7 31 15 39 13 14 15 10 15 -30 0 -50 5 -55
52 -60 60 -6 119 -27 125 -44 4 -9 19 -34 35 -56 15 -21 25 -42 22 -47 -3 -5
293 -9 685 -9 582 0 691 2 691 14 0 17 34 27 71 19 21 -4 29 -2 29 8 1 10 4 8
11 -3 8 -14 24 -18 74 -18 35 0 67 -4 70 -10 4 -6 186 -10 514 -10 507 0 509
0 523 21 13 21 15 21 61 5 85 -29 119 -21 196 48 29 25 60 46 69 46 19 0 54
-34 91 -87 l22 -33 145 0 144 0 -2 262 -3 263 -50 27 c-27 14 -56 31 -62 37
-22 20 -61 30 -166 42 -92 11 -114 10 -173 -4 -38 -10 -75 -25 -82 -35 -7 -9
-22 -27 -32 -40 -14 -15 -20 -37 -20 -67 0 -46 -26 -125 -41 -125 -5 0 -21 19
-35 43 -15 23 -47 61 -71 84 l-45 42 19 33 c104 188 497 598 616 644 9 3 38
-15 72 -45 32 -28 62 -51 67 -51 4 0 8 311 8 690 0 380 -4 690 -8 690 -5 0
-17 -9 -28 -21 -23 -25 -153 -103 -161 -96 -2 3 4 14 16 26 44 44 70 204 52
311 -15 81 -50 192 -66 205 -7 6 -15 21 -18 34 -5 22 -4 23 26 16 64 -15 123
-24 155 -24 l32 -1 0 281 0 282 -187 -6 c-104 -4 -199 -9 -213 -13 -22 -5 -21
-3 8 16 72 49 14 51 -85 4 -30 -14 -58 -24 -64 -22 -5 2 7 20 27 42 38 41 35
68 -5 47 -18 -10 -21 -9 -21 9 0 25 -5 25 -40 0 l-28 -20 -4 70 c-2 39 2 113
7 163 9 87 12 95 48 134 22 23 63 54 93 70 l54 28 45 -24 c66 -35 116 -126
101 -184 -6 -26 -34 -42 -90 -52 -33 -7 -37 -5 -67 39 -18 25 -36 46 -40 46
-8 0 -61 -41 -71 -55 -24 -34 9 -109 63 -140 74 -43 189 -17 282 65 47 42 47
43 47 105 0 102 -28 175 -93 239 -60 60 -108 80 -172 71 -49 -6 -105 -24 -105
-34 0 -4 -20 -17 -44 -30 -111 -55 -156 -157 -156 -352 0 -66 -5 -98 -21 -134
-18 -40 -23 -45 -31 -31 -7 13 -13 14 -23 6 -10 -9 -17 -4 -31 19 -23 39 -34
39 -34 1 0 -25 -4 -30 -24 -30 -14 0 -55 -11 -93 -24 -37 -13 -99 -27 -138
-30 -38 -4 -109 -16 -157 -26 l-86 -20 -64 40 c-79 51 -235 127 -290 144 l-43
12 -2 59 c-9 222 -52 401 -182 763 -40 112 -141 317 -172 351 -9 10 -31 44
-49 76 -40 72 -82 138 -172 272 -37 57 -68 105 -68 108 0 12 -79 122 -104 146
-15 13 -70 73 -124 134 -116 131 -122 137 -192 197 -233 200 -295 251 -330
274 -22 15 -40 31 -40 35 0 5 -7 9 -15 9 -8 0 -15 -7 -15 -15 0 -7 7 -40 15
-72 8 -31 15 -84 15 -118 0 -110 -45 -316 -79 -357 -53 -66 -82 -95 -136 -138
-80 -64 -125 -83 -173 -74 -126 24 -184 89 -232 259 -20 72 -22 94 -16 215 4
74 9 154 12 178 5 34 3 42 -10 42 -21 0 -102 -139 -126 -219 -58 -184 -85
-460 -78 -786 4 -200 4 -200 51 -380 25 -99 55 -210 65 -246 l18 -66 -23 -63
c-62 -164 -109 -401 -101 -504 l6 -64 -92 -7 c-50 -4 -113 -11 -141 -16 -78
-14 -212 -85 -277 -147 -32 -30 -58 -50 -58 -45 0 6 -6 13 -14 16 -18 7 -142
-25 -186 -48 -48 -26 -178 -30 -245 -8 -27 8 -86 32 -130 53 -44 20 -107 43
-140 51 -33 7 -89 24 -125 37 -150 54 -232 82 -243 82 -7 0 -32 42 -57 93 -38
79 -58 105 -138 185 -51 50 -99 92 -105 92 -6 0 -21 10 -34 22 -16 15 -23 17
-23 7 0 -8 -6 -3 -13 11 -8 14 -18 34 -24 45 -6 11 -15 38 -20 60 -8 38 -10
40 -46 39 -55 -2 -47 18 26 63 67 43 131 73 245 119 79 31 93 45 142 141 l29
58 1 -49 c0 -42 2 -47 15 -36 8 7 15 18 15 24 0 6 10 29 21 51 18 33 22 57 21
132 0 51 4 93 8 93 24 0 38 -35 44 -114 9 -109 30 -192 61 -236 14 -19 42 -59
62 -89 28 -40 48 -57 78 -67 53 -18 54 -18 61 11 4 18 13 25 30 25 21 0 24 5
24 39 0 21 -5 52 -11 68 -7 21 -7 42 0 64 5 19 10 27 10 18 1 -17 98 -107 161
-149 20 -14 55 -37 76 -51 53 -35 117 -46 149 -25 13 9 33 16 45 16 24 0 27
31 5 53 -22 22 -43 86 -48 147 -13 141 -104 319 -194 377 -61 40 -63 42 -47
86 8 23 22 50 32 60 14 16 175 116 240 151 19 10 59 59 100 124 42 64 202 261
220 271 24 13 217 76 280 92 28 7 52 16 52 20 0 4 33 13 73 20 123 22 112 48
-31 75 -57 10 -148 18 -222 18 -124 1 -126 0 -200 -36 -42 -20 -88 -48 -104
-63 -16 -14 -75 -63 -133 -108 -57 -45 -123 -97 -145 -115 -41 -32 -44 -33
-127 -30 l-85 3 -19 50 c-10 27 -22 52 -26 55 -4 3 -30 40 -59 83 -90 132
-210 227 -401 318 -68 33 -128 59 -133 59 -23 0 -108 44 -108 55 0 7 14 18 31
24 35 12 30 31 -7 31 l-25 0 21 28 c12 15 48 50 80 77 32 28 59 53 59 58 1 4
-29 7 -66 8 -65 0 -67 1 -45 16 30 21 28 33 -8 33 -16 0 -30 4 -30 8 0 5 14
18 30 30 37 28 38 42 4 42 -30 0 -76 25 -91 49 -9 15 8 33 111 119 157 131
215 189 195 197 -9 3 -73 -13 -145 -36 -135 -43 -224 -59 -224 -40 0 6 19 11
45 11 52 0 113 37 205 125 122 117 163 155 169 156 3 0 16 13 29 30 l24 29
-44 -1 c-24 -1 -59 -6 -78 -11z m-10802 -2135 c-1 -115 10 -193 23 -172 5 8 9
22 9 31 0 9 5 29 10 44 l11 27 30 -41 c17 -23 34 -42 38 -42 4 0 21 -13 37
-29 15 -16 34 -27 41 -24 15 6 42 -81 50 -157 6 -70 -8 -105 -52 -131 -19 -12
-35 -27 -35 -34 0 -8 20 -31 45 -52 25 -20 45 -45 45 -54 0 -11 11 -20 30 -24
17 -4 30 -11 30 -17 0 -15 85 -131 130 -178 45 -47 100 -57 194 -36 73 17 161
58 189 87 44 46 50 8 7 -46 -43 -54 -40 -86 11 -119 33 -22 40 -32 35 -49 -3
-12 -11 -47 -17 -77 -21 -103 -20 -103 -85 3 -32 53 -66 97 -74 97 -67 0 -706
-177 -720 -200 -7 -11 -79 -30 -117 -30 -23 0 -37 7 -48 24 -8 12 -30 31 -48
41 -29 15 -35 26 -45 76 -7 31 -21 67 -30 79 -16 20 -21 21 -41 11 -13 -7 -24
-11 -26 -9 -2 2 10 32 27 68 17 36 41 94 55 130 14 36 28 67 32 70 4 3 15 35
25 72 19 72 28 81 108 114 27 10 48 22 48 26 0 4 -25 12 -55 19 l-55 12 25 31
c14 17 28 38 31 46 5 13 62 63 119 105 19 14 18 14 -20 16 -22 1 -46 2 -52 2
-15 -1 -17 13 -3 22 19 12 10 22 -15 17 -25 -4 -33 6 -16 24 12 12 75 182 97
262 9 34 18 62 20 62 1 0 2 -44 2 -97z m12682 -918 c12 -22 35 -56 50 -75 22
-28 28 -49 33 -104 3 -48 10 -74 21 -82 9 -6 16 -15 16 -20 0 -5 13 -25 28
-44 26 -32 86 -169 78 -177 -2 -2 -27 12 -56 32 -28 19 -57 35 -64 35 -6 0
-51 20 -100 45 -48 25 -94 45 -101 45 -18 0 -40 38 -52 90 -13 54 -3 133 25
205 11 28 30 78 43 112 l23 62 17 -42 c8 -23 26 -60 39 -82z m-8754 -363 c-20
-20 -22 -1 -4 31 11 20 12 21 16 3 2 -10 -3 -26 -12 -34z m-277 -14 l-1 -43
-13 30 c-18 39 -18 55 0 55 11 0 15 -11 14 -42z m109 0 c5 -7 15 -31 23 -53
19 -57 23 -60 39 -20 13 33 30 47 30 25 0 -19 20 -10 31 13 10 22 11 21 60
-25 50 -47 50 -48 39 -82 -6 -19 -15 -36 -21 -38 -5 -2 -13 -46 -17 -98 l-7
-95 -131 130 c-72 72 -134 140 -138 152 -5 17 2 31 30 62 39 44 46 48 62 29z
m-3146 -90 c15 -24 41 -63 59 -86 31 -43 31 -44 16 -80 -31 -72 -30 -79 3 -98
35 -21 35 -24 14 -65 -14 -27 -14 -33 -1 -47 13 -15 14 -21 2 -50 -18 -41 -29
-45 -85 -28 l-45 13 -5 56 c-6 64 -28 93 -97 130 l-45 23 -1 99 c-1 55 -6 107
-10 116 -6 13 4 20 55 37 94 31 108 29 140 -20z m14112 17 c12 -13 31 -44 40
-67 68 -162 74 -173 120 -205 26 -17 71 -37 101 -44 30 -7 55 -16 55 -20 0
-14 -52 -204 -60 -219 -5 -8 -38 -19 -80 -26 -58 -10 -77 -18 -101 -43 -26
-27 -41 -69 -21 -59 69 36 88 40 130 29 23 -6 51 -11 61 -11 18 0 18 -2 -1
-62 -11 -35 -22 -97 -25 -139 l-6 -76 42 -7 c35 -5 41 -10 41 -30 0 -13 6 -29
14 -36 12 -9 17 -7 28 9 13 21 48 29 48 12 0 -5 24 -24 53 -42 28 -19 59 -43
69 -54 16 -20 16 -20 42 8 14 15 29 27 35 27 5 0 17 3 26 6 12 5 9 -4 -10 -32
-15 -22 -29 -51 -32 -66 -4 -21 -11 -28 -29 -28 -22 0 -23 -3 -21 -63 2 -34 6
-67 9 -73 4 -6 38 -23 75 -39 37 -16 70 -31 73 -35 11 -13 60 -28 128 -41 40
-7 72 -16 72 -19 0 -4 -21 -31 -46 -61 -61 -72 -88 -105 -127 -158 -20 -27
-53 -55 -87 -72 -30 -16 -59 -32 -65 -37 -15 -12 -97 -49 -172 -78 -148 -56
-220 -93 -308 -156 l-40 -29 -17 21 c-10 12 -18 28 -18 36 0 8 -4 14 -10 14
-5 0 -10 5 -10 11 0 12 -63 174 -86 223 -8 16 -13 30 -12 30 2 1 13 7 25 14
13 6 38 12 56 12 45 0 103 55 113 107 4 20 4 103 0 184 -4 97 -3 150 4 154 13
8 13 225 1 258 -9 22 -26 32 -95 53 -28 9 -31 16 -66 149 -61 230 -78 272
-112 286 -50 21 -57 33 -47 85 5 26 15 55 23 63 7 9 14 31 14 50 1 38 52 97
75 88 8 -3 33 -50 56 -106 24 -55 52 -111 64 -125 28 -32 73 -49 95 -37 16 9
82 79 82 87 0 9 -55 -9 -71 -22 -8 -8 -20 -14 -26 -14 -14 0 -35 55 -59 150
-11 41 -22 77 -26 78 -5 2 -8 12 -8 22 0 11 -12 24 -29 31 l-29 13 19 54 c11
31 19 63 19 74 0 25 17 23 44 -7z m-1729 -35 l49 -50 -36 0 c-33 0 -37 3 -56
50 -12 28 -18 50 -14 50 4 0 30 -22 57 -50z m-10782 -75 c66 -15 77 -21 78
-39 0 -12 4 -56 8 -100 12 -111 10 -116 -53 -115 -75 2 -98 10 -152 54 -88 71
-189 185 -164 185 6 0 27 -7 47 -15 53 -22 69 -19 93 21 17 27 28 34 44 31 11
-3 56 -13 99 -22z m8710 -81 c9 -3 13 -13 10 -24 -8 -31 5 -69 31 -85 13 -9
61 -22 107 -29 46 -8 109 -25 139 -39 30 -13 76 -34 102 -46 27 -12 69 -21 95
-21 29 0 53 -6 65 -16 10 -10 41 -19 70 -22 31 -3 57 -11 61 -19 5 -9 16 -11
29 -7 11 3 49 -2 84 -12 75 -22 91 -46 80 -120 -10 -76 -25 -99 -69 -102 -46
-4 -53 -18 -33 -67 10 -24 14 -51 10 -75 -5 -28 -2 -38 9 -43 9 -3 23 -30 32
-59 31 -105 122 -202 213 -225 26 -7 106 -13 177 -13 98 -1 135 -4 149 -15 11
-8 18 -16 15 -18 -117 -87 -120 -90 -112 -129 l6 -30 -44 7 c-24 4 -47 11 -50
16 -3 5 -39 22 -80 38 -98 38 -419 185 -485 222 -28 16 -63 40 -77 53 -26 24
-141 247 -172 334 -11 28 -22 52 -26 52 -3 0 -16 22 -27 49 -16 35 -30 52 -53
62 -18 7 -55 36 -83 65 -29 28 -60 53 -70 55 -20 4 -89 125 -117 208 -11 30
-19 56 -19 58 0 5 17 4 33 -3z m-5933 -165 c143 -36 144 -37 156 -70 18 -50
17 -61 -15 -94 -21 -23 -30 -45 -35 -86 -8 -66 -19 -87 -38 -72 -7 6 -24 13
-38 17 -14 3 -55 34 -93 69 -61 56 -70 70 -101 152 -54 144 -53 136 -14 128
18 -3 98 -23 178 -44z m-5600 -240 c0 -17 86 -137 134 -187 39 -41 195 -152
214 -152 5 0 17 -9 27 -20 17 -19 17 -20 -1 -20 -10 0 -52 9 -93 20 -40 11
-95 23 -122 26 -32 4 -49 11 -49 20 0 8 -10 14 -22 14 -17 0 -19 3 -10 12 24
24 12 31 -47 25 l-59 -6 -88 61 c-49 33 -90 62 -91 62 -2 1 19 19 45 39 26 19
67 54 92 76 44 41 70 52 70 30z m4714 -209 c16 -36 55 -119 87 -185 33 -68 60
-141 64 -168 9 -65 34 -87 101 -87 48 0 53 -2 71 -33 11 -18 27 -64 36 -102 9
-39 19 -80 23 -91 4 -17 0 -23 -21 -28 -23 -6 -37 4 -123 92 -133 136 -186
165 -377 203 -123 25 -218 64 -279 115 l-46 38 22 24 c20 21 30 23 98 21 111
-2 113 -2 139 36 13 19 34 46 46 60 13 13 45 61 72 105 26 44 50 76 54 72 3
-4 18 -36 33 -72z m4109 48 c18 -21 18 -23 1 -35 -10 -7 -26 -13 -35 -13 -10
0 -21 -4 -24 -10 -10 -17 -38 -11 -70 15 -33 27 -34 25 20 54 46 24 81 20 108
-11z m6237 -49 c47 -121 47 -130 5 -159 -19 -14 -38 -35 -41 -48 -7 -25 33
-209 48 -218 19 -12 5 -42 -37 -84 l-45 -44 -27 25 c-14 13 -62 60 -105 104
-67 69 -82 91 -108 158 -33 86 -35 97 -20 97 7 0 8 13 4 35 -5 28 -3 35 9 35
9 0 23 -10 31 -21 15 -22 15 -22 62 20 26 22 51 41 57 41 5 0 7 13 3 31 l-6
31 42 -4 c41 -2 43 -1 63 40 11 23 23 42 27 42 3 0 21 -36 38 -81z m-13491 -6
c27 3 43 -2 63 -18 l27 -23 -52 -22 c-28 -13 -76 -31 -106 -40 -53 -18 -55
-18 -82 2 -36 27 -44 48 -19 48 10 0 34 18 51 40 32 39 33 40 57 24 15 -10 38
-14 61 -11z m6939 -135 c45 -23 82 -47 82 -54 0 -6 -7 -25 -15 -40 -19 -37
-19 -68 0 -84 23 -19 19 -26 -37 -54 -49 -25 -52 -25 -72 -8 -11 9 -25 20 -31
25 -60 44 -115 91 -113 96 17 33 29 65 43 114 19 68 16 68 143 5z m-4670 -78
l60 -12 -44 -87 c-24 -47 -49 -91 -54 -98 -5 -6 -18 -37 -29 -69 -17 -50 -20
-55 -30 -37 -8 15 -6 39 5 93 14 69 14 109 -1 215 l-8 50 21 -21 c11 -12 45
-26 80 -34z m4085 -61 c-14 -15 -27 -19 -40 -15 -17 7 -17 8 1 22 11 8 29 14
40 14 20 0 20 0 -1 -21z m5940 -3 c8 -8 36 -22 63 -31 49 -16 50 -17 72 -84
12 -38 22 -72 22 -76 0 -4 -19 10 -42 32 -55 50 -172 133 -188 133 -15 0 31
39 47 40 6 0 18 -6 26 -14z m-4019 -36 c14 -14 -2 -41 -33 -53 -32 -12 -61
-53 -61 -86 0 -12 11 -33 25 -47 20 -20 23 -29 15 -45 -8 -14 -15 -17 -28 -10
-52 28 -79 109 -56 171 12 33 13 33 20 13 10 -34 17 -28 37 28 17 47 20 50 45
44 15 -3 31 -10 36 -15z m-1653 -11 c11 -6 29 -30 39 -53 12 -30 28 -48 49
-57 17 -8 31 -17 31 -21 0 -4 -26 -15 -57 -23 -32 -9 -64 -18 -71 -20 -7 -3
-40 18 -75 46 -34 28 -77 57 -94 66 -18 8 -33 19 -33 25 0 32 165 62 211 37z
m542 -85 c3 -4 -1 -24 -10 -45 -8 -22 -13 -53 -11 -69 3 -17 3 -30 1 -30 -3 0
-102 32 -143 46 -9 3 3 15 35 33 28 16 59 38 69 50 19 20 46 27 59 15z m3239
-28 c29 -18 91 -55 138 -81 47 -26 87 -51 90 -55 3 -4 29 -19 58 -34 29 -15
111 -60 182 -101 154 -89 239 -114 463 -141 31 -3 60 -11 63 -16 4 -6 15 -44
25 -86 11 -43 24 -78 29 -80 6 -2 10 -8 10 -14 0 -6 23 -73 50 -148 l50 -137
-15 -139 c-8 -76 -17 -148 -20 -159 -3 -11 -32 -49 -65 -84 l-59 -64 -7 29
c-10 40 -89 218 -115 261 -28 45 -111 145 -212 254 -37 42 -167 279 -167 307
0 24 -30 40 -67 35 -36 -5 -172 -58 -183 -72 -3 -4 -28 -23 -56 -44 -28 -20
-69 -56 -91 -80 -35 -38 -44 -43 -76 -39 -30 3 -37 0 -48 -24 -8 -16 -37 -39
-69 -57 -30 -16 -77 -46 -105 -66 -27 -21 -61 -43 -74 -50 -18 -10 -22 -19
-18 -44 2 -18 1 -39 -4 -47 -4 -8 -10 -23 -13 -32 -3 -9 -39 -40 -80 -68 -75
-50 -76 -50 -76 -25 0 14 16 52 37 83 153 239 313 530 313 570 0 12 5 22 10
22 6 0 10 18 10 40 0 22 -4 40 -10 40 -5 0 -10 18 -10 40 0 22 3 40 8 40 4 0
36 -39 71 -85 35 -47 69 -84 75 -82 6 2 12 28 14 58 2 44 -9 88 -56 232 -32
97 -57 177 -55 177 1 0 26 -15 55 -34z m-5818 -102 c20 -40 47 -79 58 -85 48
-26 248 15 248 50 0 4 11 13 24 19 13 6 27 19 30 29 8 24 33 26 131 8 44 -8
112 -17 150 -20 74 -7 125 -21 125 -36 0 -5 20 -37 45 -72 25 -34 70 -110 100
-168 31 -61 65 -113 80 -123 30 -20 31 -29 5 -66 -29 -40 -80 -146 -80 -164 0
-10 -9 -16 -23 -16 -83 0 -380 -112 -429 -163 -13 -12 -50 -44 -83 -70 -86
-69 -175 -158 -175 -176 0 -28 -16 -4 -105 169 -7 14 -41 81 -75 150 -34 68
-68 129 -75 135 -14 11 -94 152 -114 202 -7 18 -11 42 -8 52 3 11 -1 28 -8 38
-10 13 -10 23 -2 38 15 27 14 168 -2 234 -15 60 -9 71 41 71 15 0 39 11 55 24
15 13 33 22 39 19 6 -2 28 -38 48 -79z m7821 47 l60 -6 17 -45 c9 -25 17 -54
17 -66 1 -21 0 -21 -51 -7 -29 8 -73 19 -98 25 -25 6 -47 14 -50 17 -3 4 -27
13 -55 20 -27 7 -79 23 -115 34 l-65 22 50 6 c68 8 217 8 290 0z m-5590 -61
c3 -5 0 -10 -9 -10 -8 0 -16 -5 -18 -10 -5 -15 -90 -18 -95 -4 -7 22 109 45
122 24z m-6345 -156 c0 -8 -150 -176 -171 -191 -14 -10 -18 -10 -23 2 -3 8
-17 15 -31 15 -14 0 -43 9 -65 20 -29 15 -37 24 -33 39 3 13 -3 25 -21 36 -14
10 -26 21 -26 26 0 9 53 25 123 35 44 6 50 4 91 -30 53 -43 73 -45 82 -8 11
46 24 62 49 62 14 0 25 -3 25 -6z m11785 -114 c116 -26 140 -36 154 -66 19
-42 -4 -111 -43 -129 -17 -8 -41 -22 -53 -31 -22 -15 -23 -15 -52 33 -17 26
-34 53 -38 58 -12 14 -68 117 -76 138 -8 21 -4 21 108 -3z m-11140 -559 c3 -6
-10 -13 -29 -16 -19 -4 -48 -20 -65 -37 -16 -16 -35 -27 -41 -23 -11 7 33 42
89 71 31 16 38 17 46 5z m14135 -72 c-171 -138 -251 -220 -498 -509 -49 -58
-101 -115 -114 -128 l-25 -22 -26 21 c-15 11 -27 24 -27 29 0 4 33 34 73 66
83 67 234 221 243 247 3 9 11 17 19 17 7 0 23 12 35 28 11 15 83 82 158 149
98 88 144 123 162 122 l25 0 -25 -20z m-11666 -38 c3 -5 28 -14 55 -21 42 -10
59 -9 104 4 34 10 68 13 88 9 31 -6 26 -9 -71 -39 -76 -24 -108 -30 -117 -22
-7 6 -25 8 -40 5 -18 -3 -39 3 -65 20 -54 36 -51 41 29 52 6 0 14 -3 17 -8z
m523 -118 c15 -21 47 -57 71 -82 54 -57 55 -82 6 -124 -20 -16 -22 -16 -44 3
-13 11 -28 20 -34 20 -6 0 -21 15 -34 33 -20 30 -21 41 -16 110 4 42 11 77 15
77 4 0 21 -17 36 -37z m2393 -132 c0 -5 11 -12 24 -15 21 -5 24 -13 31 -73 12
-121 67 -211 164 -268 45 -26 74 -66 59 -80 -5 -5 -131 36 -138 45 -20 26
-244 70 -358 70 -99 0 -406 -51 -422 -70 -3 -3 -43 -21 -90 -39 -141 -55 -281
-127 -358 -186 -40 -30 -75 -55 -77 -55 -8 0 -52 46 -90 95 -22 27 -62 78 -90
112 -67 83 -145 191 -145 200 0 4 21 23 45 42 l45 33 86 -81 c48 -45 94 -81
102 -81 24 0 97 65 148 131 35 46 51 59 65 56 12 -3 32 5 51 21 42 35 116 43
298 31 273 -18 308 -18 388 -4 97 17 138 33 184 74 20 17 41 31 47 31 6 0 11
5 11 10 0 6 5 10 10 10 6 0 10 -4 10 -9z m-4364 -396 c6 -33 10 -64 7 -68 -3
-4 -75 -7 -161 -6 -86 1 -168 -1 -182 -6 -14 -4 -47 -23 -75 -43 -45 -32 -229
-112 -258 -112 -7 0 -47 -14 -91 -31 -43 -16 -79 -29 -80 -27 -1 2 -37 47 -79
101 -42 54 -77 102 -77 107 0 4 15 13 33 20 17 6 55 20 84 31 28 11 77 23 107
26 31 3 56 9 56 13 0 4 21 10 48 14 26 4 81 12 122 17 98 14 309 26 434 25
l99 -1 13 -60z m5164 -177 c7 -18 15 -37 18 -41 4 -8 -13 -5 -90 14 -31 8 -38
14 -38 34 0 23 4 25 48 25 44 0 49 -2 62 -32z m1653 -14 c9 -19 35 -54 58 -79
42 -45 42 -45 23 -68 -10 -12 -20 -24 -21 -26 -4 -6 -143 142 -143 152 0 17
43 65 55 61 6 -3 19 -20 28 -40z m2641 -79 c-4 -8 -10 -12 -15 -9 -14 8 -10
24 6 24 9 0 12 -6 9 -15z m-2084 -24 c0 -4 11 -20 25 -35 22 -24 65 -107 65
-126 0 -5 -12 -4 -27 0 -199 62 -346 77 -383 40 -11 -11 -31 -20 -44 -20 -19
0 -25 7 -34 42 -6 23 -9 44 -7 47 3 2 43 -2 89 -9 83 -13 86 -13 163 15 43 15
87 34 98 41 22 16 55 19 55 5z"/>
</g>
</svg>
